<mxfile host="app.diagrams.net" modified="2023-09-02T08:34:50.047Z" agent="Mozilla/5.0 (Macintosh; Intel Mac OS X 10_15_7) AppleWebKit/537.36 (KHTML, like Gecko) Chrome/115.0.0.0 Safari/537.36" version="21.6.6" etag="plafzDUgbFLoYfbFCATp" type="github">
  <diagram name="第 1 页" id="qIj1pewa5_XO1ZpKstLC">
    <mxGraphModel>
      <root>
        <mxCell id="0" />
        <mxCell id="1" parent="0" />
      </root>
    </mxGraphModel>
  </diagram>
</mxfile>
